<?xml version='1.0' encoding='utf-8'?>
<!DOCTYPE svg PUBLIC '-//W3C//DTD SVG 1.1//EN' 'http://www.w3.org/Graphics/SVG/1.1/DTD/svg11.dtd'>
<svg version="1.1" xmlns="http://www.w3.org/2000/svg" viewBox="0 0 512 512" xmlns:xlink="http://www.w3.org/1999/xlink" enable-background="new 0 0 512 512">
  <g>
    <g>
      <path fill="#970000" d="m463.6,144.9l-142.9-128.7c-3.7-3.3-8.6-5.2-13.7-5.2h-245c-11.3,0-20.4,9.1-20.4,20.4v449.2c0,11.3 9.1,20.4 20.4,20.4h388c11.3,0 20.4-9.1 20.4-20.4v-320.5c0-5.8-2.5-11.3-6.8-15.2zm-140.1-71.2l97.6,87.9h-97.6v-87.9zm106,386.5h-347v-408.4h200.2v130.2c0,11.3 9.1,20.4 20.4,20.4h126.5v257.8z"/>
      <path fill="#970000" d="m119.2,276.4c0,11.3 9.1,20.4 20.4,20.4h232.8c11.3,0 20.4-9.1 20.4-20.4 0-11.3-9.1-20.4-20.4-20.4h-232.8c-11.3,2.84217e-14-20.4,9.1-20.4,20.4z"/>
      <path fill="#970000" d="m372.4,355.6h-232.8c-11.3,0-20.4,9.1-20.4,20.4 0,11.3 9.1,20.4 20.4,20.4h232.8c11.3,0 20.4-9.1 20.4-20.4 5.68434e-14-11.3-9.1-20.4-20.4-20.4z"/>
    </g>
  </g>
</svg>
