<svg width="563" height="534" viewBox="0 0 563 534" fill="none" xmlns="http://www.w3.org/2000/svg">
<g filter="url(#filter0_d_395_2)">
<path d="M552.564 359.695C553.44 358.512 554.244 357.265 555.219 356.171C555.735 355.595 557.101 355.301 557.112 354.855C557.137 353.913 556.805 352.491 556.126 352.084C549.97 348.33 548.319 342.423 547.534 335.801C547.321 333.992 545.447 332.382 544.361 330.667C543.965 330.047 543.355 329.387 543.333 328.728C543.166 323.602 540.462 321.76 535.548 322.078C534.896 322.12 534.062 320.205 533.405 319.139C532.666 317.939 532.339 316.149 531.291 315.537C528.267 313.775 528.5 310.893 530.459 308.173C531.845 306.255 531.734 302.631 531.069 300.088C530.332 297.281 528.234 294.824 526.635 292.269C526.336 291.793 525.504 291.239 525.044 291.336C518.007 292.785 521.663 287.296 521.134 284.944C520.529 282.248 520.748 279.294 521.042 276.499C521.189 275.097 522.536 273.858 522.913 272.432C523.437 270.442 523.575 268.35 523.847 266.297C524.005 265.098 524.157 263.89 524.215 262.696C524.299 260.897 524.16 259.077 524.379 257.298C524.551 256.141 524.957 255.032 525.573 254.037C527.719 250.469 525.875 242.307 522.381 241.755C518.528 241.148 516.602 239.09 515.144 235.818C514.867 235.214 513.013 235.402 511.949 235.039C510.951 234.701 510.087 233.881 509.081 233.684C506.115 233.103 503.108 232.753 500.129 232.241C499.66 232.161 498.846 231.612 498.884 231.451C499.674 228.282 500.065 224.879 501.542 222.031C504.486 216.379 507.254 210.289 511.58 205.809C515.275 201.983 521.28 200.503 525.845 197.378C536.424 190.136 539.425 188.138 535.301 174.28C534.747 172.429 535.442 170.24 535.16 168.264C534.52 163.793 533.497 159.376 532.904 154.899C532.66 153.018 533.755 150.823 533.159 149.158C531.731 145.045 529.908 141.079 527.716 137.317C519.709 123.89 514.474 109.414 510.99 94.2723C510.292 91.2384 510.511 87.9996 510.236 84.8522C510.156 84.0922 509.94 83.3527 509.599 82.6689C508.058 79.5381 506.376 76.4738 504.943 73.2959C504.596 72.5257 504.71 71.2595 505.115 70.4865C508.493 64.0282 505.461 59.404 500.957 55.0984C500.428 54.5914 500.331 53.6273 499.799 53.1258C498.136 51.5659 496.537 49.862 494.614 48.6928C491.812 47.0027 488.724 45.7892 485.812 44.2764C483.436 43.0435 481.128 41.6803 478.805 40.3504C477.187 39.4223 475.433 38.6465 474.027 37.4579C471.059 34.9449 468.859 36.4993 466.337 38.2642C464.74 39.3724 462.734 40.3477 460.827 40.5139C440.742 42.2566 420.641 45.2046 400.548 45.0937C375.91 44.9552 351.283 42.3231 326.67 40.5028C322.441 40.1925 318.356 38.3417 314.11 37.7322C312.344 37.4773 309.512 38.0093 308.658 39.2394C305.446 43.858 300.735 44.9774 295.937 46.8919C292.792 48.147 290.921 52.5938 288.482 55.6166C288.346 55.7856 288.244 55.9795 288.125 56.1707C288.016 55.9935 287.886 55.8307 287.737 55.6858C286.196 54.536 284.636 53.4084 283.1 52.2475C282.754 51.9843 282.213 51.5881 282.233 51.2861C282.357 49.4713 282.044 46.468 282.926 46.0468C286.304 44.426 289.746 42.9382 293.202 41.4836L292.98 40.9738C283.771 44.9303 273.63 45.102 263.476 44.7058C259.704 44.559 256.076 41.841 252.296 40.5499C246.348 38.5384 245.822 34.1775 246.143 28.7498C246.323 25.752 245.284 22.4384 243.962 19.665C242.593 16.8001 239.927 14.5726 238.419 11.7521C237.729 10.472 238.419 8.44395 238.505 6.76495C239.353 6.85915 240.381 6.67906 241.019 7.09466C245.353 9.93731 249.824 12.6359 253.767 15.9606C255.58 17.4762 256.262 20.2994 257.614 22.4439C257.927 22.9149 258.811 23.0645 259.44 23.3416C259.576 22.6988 260.053 21.8094 259.792 21.452C257.7 18.5539 255.912 15.2043 253.188 13.0432C247.31 8.38023 240.941 4.35728 234.775 0.0683594H230.617C226.244 0.267844 221.779 -0.0203006 217.52 0.78318C211.145 1.98563 204.937 4.00541 198.638 5.59021C192.527 7.1279 186.136 7.91753 180.346 10.2199C174.593 12.5029 169.538 16.5148 163.964 19.302C159.494 21.5185 154.652 24.6271 150.013 24.5662C141.311 24.4526 135.601 28.2788 131.852 35.1167C125.089 47.4709 113.787 49.9396 101.191 52.4331C84.2051 55.7939 67.6928 61.5595 50.9755 66.2862C45.6682 67.7851 40.2583 68.9903 35.073 70.8273C32.3819 71.7804 30.223 74.2019 27.5457 75.2436C25.5171 76.0333 23.0449 75.8532 20.7779 75.7811C19.4725 75.7396 18.1866 75.0608 16.8979 74.6729C16.715 76.435 15.7893 78.6155 16.5126 79.8706C17.7376 82.0261 19.7829 83.9129 21.9003 85.2594C22.6597 85.7443 24.5803 84.1373 26.0436 83.8492C28.6488 83.3311 31.3094 83.0845 33.9505 82.7409C34.1141 82.7215 34.4245 82.8074 34.4549 82.9072C35.2115 85.3813 36.503 87.8749 36.4587 90.3408C36.4338 91.7399 33.4905 92.9424 33.133 94.5133C32.6064 96.9265 30.9463 100.37 35.4139 101.418C35.6079 101.462 35.8601 102.16 35.7548 102.421C35.3279 103.474 34.7709 104.474 34.2609 105.493C33.8147 105.069 33.0498 104.698 32.9722 104.216C32.3625 100.379 29.8571 98.9519 26.3928 97.7771C24.5803 97.1676 23.4108 94.6546 21.9336 93.0172C21.5699 92.6472 21.1869 92.2967 20.7862 91.9671C20.4675 92.3522 20.1488 92.7429 19.8273 93.128C15.5066 98.2841 19.0125 104.191 18.7991 109.61C18.5552 115.753 21.5872 121.984 22.8648 128.243C23.286 130.315 22.9424 132.656 22.4823 134.77C21.723 138.281 20.0019 141.661 19.7303 145.177C19.2231 151.729 15.9999 156.013 10.3407 158.753C7.27821 160.21 6.31652 162.382 6.78767 165.81C6.98444 167.239 5.47678 168.902 4.74512 170.462V172.401C7.16736 174.454 9.82239 176.28 11.9509 178.613C14.7389 181.644 16.884 185.279 19.7414 188.238C22.1165 190.693 25.1069 192.555 27.8451 194.655C28.488 195.148 29.458 195.375 29.8544 195.996C31.7944 199.043 29.2724 206.89 26.2321 208.862C25.1235 209.574 24.9711 211.605 24.1784 212.91C23.0006 214.85 26.2958 224.616 28.4742 225.168C32.0965 226.085 31.7001 228.753 31.7999 231.606C31.9163 234.948 32.781 238.256 33.2715 241.6C33.3464 242.102 33.1718 242.65 33.0637 243.168C32.296 246.861 31.5865 250.569 30.6941 254.229C30.3268 255.624 29.7523 256.957 28.9897 258.182C26.9 261.654 24.9711 265.02 28.0751 268.988C28.6904 269.772 28.6294 271.104 28.8206 272.196C28.9426 272.908 28.7153 274.135 29.0285 274.288C33.6512 276.327 31.1957 280.425 31.6807 283.578C31.8581 284.722 30.8299 286.071 30.295 287.299C29.6049 288.917 27.8534 291.252 28.355 291.964C29.4165 293.425 31.8359 295.012 33.424 294.771C38.3128 294.031 45.2774 299.271 44.4931 303.82C44.2409 305.283 43.0547 306.671 43.0797 308.078C43.1129 310.151 44.2354 312.215 44.2049 314.273C44.1439 318.654 44.1882 323.162 43.185 327.376C41.6912 333.668 39.3576 339.763 37.2929 345.911C37.0989 346.49 36.1206 346.767 35.7769 347.344C34.6683 349.23 33.6595 351.195 32.6147 353.126C34.369 353.68 36.1123 354.279 37.8804 354.788C38.5047 354.941 39.1491 354.994 39.79 354.946C40.9845 354.894 42.1762 354.761 43.3679 354.669C43.2487 353.627 43.0048 352.58 43.0381 351.544C43.0741 350.364 43.5674 349.178 43.4788 348.022C43.3762 346.659 42.8413 345.332 42.5392 343.98C42.4034 343.371 42.1928 342.246 42.3314 342.196C43.3485 341.813 44.6622 341.157 45.4686 341.514C46.8322 342.121 47.8853 343.418 49.0715 344.412C49.2085 344.534 49.3874 344.597 49.5704 344.59C51.4854 344.177 53.6693 342.969 55.2352 343.517C56.8814 344.096 59.3619 347.072 59.0154 347.759C56.9951 351.774 60.3374 353.683 61.6483 356.384C62.2386 357.606 62.5629 358.955 63.0562 360.227C63.3694 361.031 63.6548 361.909 64.2063 362.521C64.3837 362.715 65.448 361.884 65.9939 362.011C69.3723 362.784 72.7174 363.715 76.0792 364.563C79.3384 365.394 82.7002 365.921 85.8291 367.09C87.1095 367.569 87.9493 369.34 88.8777 370.606C89.1992 371.044 88.9802 371.969 89.3433 372.268C90.5844 373.347 91.9339 374.295 93.3702 375.097C94.1407 375.51 95.3961 375.127 96.0446 375.615C96.513 375.972 96.2386 377.205 96.4908 377.987C96.743 378.768 97.3389 380.07 97.5994 380.026C98.5775 379.855 99.4884 379.415 100.23 378.754C101.299 377.757 102 376.322 103.162 375.507C103.453 375.302 104.841 376.892 105.853 377.405C106.471 377.724 107.951 377.754 107.992 377.607C109.059 373.947 112.258 374.379 113.895 375.756C117.013 378.375 122.686 380.189 119.951 386.13C119.222 387.709 117.146 388.762 115.531 389.812C113.164 391.344 109.575 392.12 108.533 394.223C107.646 396.007 109.616 399.21 110.351 401.786C110.403 401.972 110.703 402.238 110.858 402.221C117.188 401.423 114.461 408.871 118.427 410.533C120.09 411.234 121.304 413.453 122.307 415.216C123.673 417.598 124.222 420.549 125.896 422.635C128.199 425.5 130.937 428.362 134.124 429.947C135.039 430.401 138.04 426.298 140.288 424.547C142.184 423.07 144.445 422.053 146.418 420.668C147.591 419.854 148.547 418.729 149.586 417.723C149.798 417.492 149.995 417.247 150.174 416.989C150.47 417.379 150.778 417.762 151.06 418.164C151.756 419.15 152.446 420.145 153.128 421.134C153.541 420.169 154.553 418.95 154.27 418.28C153.109 415.537 151.559 412.963 150.138 410.334C150.057 410.184 149.772 410.129 149.725 409.985C148.68 406.71 147.485 403.465 146.762 400.121C146.604 399.39 148.081 397.608 148.929 397.522C150.149 397.4 151.573 398.229 152.748 398.924C155.836 400.756 158.862 402.701 161.861 404.679C162.759 405.272 163.912 405.989 164.208 406.895C165.261 410.118 167.279 411.165 170.544 410.774C171.098 410.705 172.051 412.179 172.498 413.099C173.024 414.19 173.204 415.451 173.534 416.64C174.038 415.784 174.501 414.902 175.061 414.088C175.294 413.75 175.732 413.556 176.076 413.296C176.452 414.105 176.907 414.889 177.184 415.734C177.428 416.507 177.461 417.349 177.589 418.158C178.282 417.737 178.927 417.18 179.678 416.928C180.614 416.574 181.608 416.4 182.608 416.415C186.366 416.645 190.271 417.665 192.701 413.34C192.979 412.827 194.273 412.877 195.096 412.667C195.193 413.356 195.323 414.052 195.373 414.733C195.47 416.038 195.509 417.349 195.598 418.654C195.875 422.779 193.935 424.602 189.83 424.525C188.722 424.505 187.585 425.123 186.466 425.447C187.297 427.312 188.001 429.254 189.06 430.989C189.337 431.443 190.82 431.008 191.582 431.352C192.71 431.861 193.94 432.504 194.68 433.443C196.121 435.275 197.191 437.394 198.535 439.309C199.342 440.459 200.353 442.298 201.321 442.329C203.205 442.393 205.109 441.343 207.032 440.872C207.833 440.675 208.72 440.847 209.552 440.73C210.782 440.556 211.999 440.273 213.221 440.038C212.755 439.334 212.279 438.636 211.835 437.921C211.633 437.599 211.281 437.192 211.356 436.921C211.456 436.563 211.971 436.001 212.187 436.051C213.121 436.256 214.31 436.414 214.834 437.054C215.358 437.694 214.909 439.071 215.388 439.788C215.984 440.68 217.453 442.005 217.927 441.802C222.577 439.691 223.279 444.313 225.662 446.042C226.494 446.648 227.602 446.989 228.614 447.249C231.316 447.937 234.029 448.613 236.776 449.089C238.017 449.305 239.342 448.989 240.628 449.006C241.351 449.006 242.657 449.1 242.701 449.336C243.036 451.139 243.505 453.051 243.222 454.816C242.39 459.983 242.457 464.668 247.859 467.467C249.829 468.486 251.844 469.406 253.825 470.415C254.227 470.617 254.812 470.863 254.906 471.202C255.94 474.939 256.733 478.749 257.955 482.423C258.462 483.963 259.925 486.481 260.771 486.412C267.284 485.858 264.573 490.798 265.513 493.616C265.909 494.807 267.004 496.547 267.915 496.636C270.299 496.869 272.752 496.245 275.185 496.109C279.24 495.882 280.174 493.339 280.451 489.839C280.542 488.692 281.714 487.448 282.693 486.587C284.94 484.609 287.327 482.774 289.743 481.001C291.769 479.513 293.92 478.197 296.015 476.804C297.029 478.804 297.955 480.86 299.064 482.797C301.469 486.928 303.858 491.083 306.577 495.009C307.004 495.627 309.188 494.816 310.427 495.154C311.615 495.478 313.131 496.187 313.619 497.165C314.67 499.268 315.304 501.623 315.784 503.942C315.975 504.853 315.354 505.962 315.013 506.951C314.398 508.757 313.716 510.553 313.073 512.337C315.49 512.417 318.256 513.276 320.232 512.387C322.951 511.159 324.855 509.669 327.388 512.664C328.272 513.714 330.359 513.747 331.894 514.246C332.299 512.741 332.612 511.198 333.127 509.744C333.959 507.366 334.33 504.369 336.004 502.878C337.589 501.465 340.594 501.62 342.988 501.149C344.027 500.947 345.097 500.905 346.15 500.792C345.97 499.925 345.76 499.063 345.616 498.19C345.532 497.678 345.338 496.852 345.571 496.694C345.979 496.417 346.663 496.475 347.234 496.47C349.382 496.442 352.539 498.855 352.777 494.159C352.777 494.073 353.966 493.81 354.113 494.004C358.295 499.445 362.521 495.444 366.806 494.25C367.585 494.034 369.023 494.804 369.605 495.533C371.099 497.428 371.875 500.692 373.687 501.351C376.736 502.46 380.372 502.163 383.745 502.019C384.493 501.989 385.109 500.08 385.893 499.129C386.447 498.47 387.251 498.021 387.794 497.376C388.492 496.544 389.318 495.638 389.573 494.635C389.85 493.566 389.518 492.344 389.454 491.189C391.283 491.588 393.129 491.929 394.933 492.413C395.637 492.605 396.319 493.494 396.89 493.383C397.461 493.272 397.799 492.122 398.428 491.796C399.944 491.009 402.031 489.452 403.084 489.936C409.603 492.923 415.874 491.676 422.456 490.294C424.075 489.956 426.386 493.139 428.457 494.597C429.438 495.289 431.134 496.486 431.588 496.162C435.687 493.256 438.686 496.506 440.873 498.525C443.237 500.706 443.511 505.214 445.922 507.267C448.66 509.594 452.765 510.314 456.257 511.769C456.928 512.046 457.482 512.6 458.141 512.908C459.863 513.739 461.603 514.517 463.352 515.282C464.569 515.816 465.798 516.32 467.038 516.795C469.488 517.726 471.935 518.668 474.407 519.529C477.04 520.444 479.695 521.289 482.35 522.131C483.337 522.444 484.373 522.605 485.354 522.929C488.02 523.807 490.67 524.735 493.328 525.644H496.931C497.515 521.524 497.23 517.806 493.81 514.659C491.016 512.088 488.575 509.076 486.344 505.992C485.806 505.247 487.145 503.366 486.898 502.155C485.404 494.766 483.678 487.421 482.101 480.048C481.918 479.195 481.887 478.086 482.283 477.372C484.24 473.834 486.238 470.304 488.486 466.951C489.459 465.5 491.421 464.696 492.333 463.225C497.105 455.545 501.675 447.737 506.337 439.988C508.232 436.84 509.87 433.474 512.157 430.651C517.719 423.807 523.575 417.205 529.367 410.55C531.781 407.779 535.977 405.399 536.504 402.349C538.025 393.51 545.209 395.649 550.325 394.184C555.217 392.782 557.647 389.77 557.949 382.918C558.171 377.845 558.639 372.783 559 367.719V365.502C554.291 366.455 555.352 360.936 552.564 359.695ZM247.246 43.243C247.34 42.3979 248.596 41.6831 249.347 40.9101C250.095 41.636 251.339 42.2954 251.45 43.11C251.561 43.9245 250.519 44.8693 249.51 46.5705C248.31 44.933 247.144 44.0187 247.246 43.243Z" fill="#DBDBDB"/>
<path d="M191.345 65.2861C183.284 65.2861 175.983 71.821 175.983 79.8844C175.983 87.9459 182.645 97.5706 191.345 111.374C200.046 97.5706 206.708 87.9459 206.708 79.8844C206.708 71.821 199.409 65.2861 191.345 65.2861ZM191.345 86.4097C188.164 86.4097 185.585 83.8307 185.585 80.6487C185.585 77.4667 188.164 74.8877 191.345 74.8877C194.527 74.8877 197.106 77.4667 197.106 80.6487C197.106 83.8307 194.527 86.4097 191.345 86.4097Z" fill="#970000"/>
<path d="M345.733 243.761C337.671 243.761 330.37 250.296 330.37 258.359C330.37 266.421 337.032 276.045 345.733 289.848C354.434 276.045 361.095 266.421 361.095 258.359C361.095 250.296 353.796 243.761 345.733 243.761ZM345.733 264.884C342.551 264.884 339.972 262.305 339.972 259.123C339.972 255.941 342.551 253.362 345.733 253.362C348.915 253.362 351.494 255.941 351.494 259.123C351.494 262.305 348.915 264.884 345.733 264.884Z" fill="#970000"/>
<path d="M90.0178 159.62C81.9563 159.62 74.6553 166.155 74.6553 174.218C74.6553 182.28 81.3169 191.905 90.0178 205.708C98.7188 191.905 105.38 182.28 105.38 174.218C105.38 166.155 98.0813 159.62 90.0178 159.62ZM90.0178 180.744C86.8359 180.744 84.2569 178.165 84.2569 174.983C84.2569 171.801 86.8359 169.222 90.0178 169.222C93.1998 169.222 95.7788 171.801 95.7788 174.983C95.7788 178.165 93.1998 180.744 90.0178 180.744Z" fill="#970000"/>
<path d="M206.708 113.532C198.646 113.532 191.345 120.067 191.345 128.131C191.345 136.192 198.007 145.817 206.708 159.62C215.409 145.817 222.07 136.192 222.07 128.131C222.07 120.067 214.771 113.532 206.708 113.532ZM206.708 134.656C203.526 134.656 200.947 132.077 200.947 128.895C200.947 125.713 203.526 123.134 206.708 123.134C209.89 123.134 212.469 125.713 212.469 128.895C212.469 132.077 209.89 134.656 206.708 134.656Z" fill="#970000"/>
<path d="M124.844 131.143C116.783 131.143 109.481 137.678 109.481 145.741C109.481 153.803 116.143 163.427 124.844 177.231C133.545 163.427 140.207 153.803 140.207 145.741C140.207 137.678 132.907 131.143 124.844 131.143ZM124.844 152.267C121.662 152.267 119.083 149.688 119.083 146.506C119.083 143.324 121.662 140.745 124.844 140.745C128.026 140.745 130.605 143.324 130.605 146.506C130.605 149.688 128.026 152.267 124.844 152.267Z" fill="#970000"/>
<path d="M175.983 205.708C167.921 205.708 160.62 212.243 160.62 220.306C160.62 228.368 167.282 237.992 175.983 251.796C184.684 237.992 191.345 228.368 191.345 220.306C191.345 212.243 184.046 205.708 175.983 205.708ZM175.983 226.832C172.801 226.832 170.222 224.253 170.222 221.071C170.222 217.889 172.801 215.31 175.983 215.31C179.165 215.31 181.744 217.889 181.744 221.071C181.744 224.253 179.165 226.832 175.983 226.832Z" fill="#970000"/>
<path d="M222.071 192.153C214.009 192.153 206.708 198.688 206.708 206.752C206.708 214.813 213.37 224.438 222.071 238.241C230.772 224.438 237.433 214.813 237.433 206.752C237.433 198.688 230.134 192.153 222.071 192.153ZM222.071 213.277C218.889 213.277 216.31 210.698 216.31 207.516C216.31 204.334 218.889 201.755 222.071 201.755C225.253 201.755 227.832 204.334 227.832 207.516C227.832 210.698 225.253 213.277 222.071 213.277Z" fill="#970000"/>
<path d="M129.134 192.153C121.073 192.153 113.771 198.688 113.771 206.752C113.771 214.813 120.433 224.438 129.134 238.241C137.835 224.438 144.497 214.813 144.497 206.752C144.497 198.688 137.197 192.153 129.134 192.153ZM129.134 213.277C125.952 213.277 123.373 210.698 123.373 207.516C123.373 204.334 125.952 201.755 129.134 201.755C132.316 201.755 134.895 204.334 134.895 207.516C134.895 210.698 132.316 213.277 129.134 213.277Z" fill="#970000"/>
<path d="M330.37 310.858C322.309 310.858 315.008 317.393 315.008 325.457C315.008 333.518 321.669 343.143 330.37 356.946C339.071 343.143 345.733 333.518 345.733 325.457C345.733 317.393 338.434 310.858 330.37 310.858ZM330.37 331.982C327.188 331.982 324.609 329.403 324.609 326.221C324.609 323.039 327.188 320.46 330.37 320.46C333.552 320.46 336.131 323.039 336.131 326.221C336.131 329.403 333.552 331.982 330.37 331.982Z" fill="#970000"/>
<path d="M53.3211 88.3301C45.2596 88.3301 37.9585 94.8649 37.9585 102.928C37.9585 110.99 44.6201 120.615 53.3211 134.418C62.022 120.615 68.6836 110.99 68.6836 102.928C68.6836 94.8649 61.3845 88.3301 53.3211 88.3301ZM53.3211 109.454C50.1391 109.454 47.5601 106.875 47.5601 103.693C47.5601 100.511 50.1391 97.9317 53.3211 97.9317C56.503 97.9317 59.082 100.511 59.082 103.693C59.082 106.875 56.503 109.454 53.3211 109.454Z" fill="#970000"/>
<path d="M260.821 220.717C252.76 220.717 245.458 227.252 245.458 235.315C245.458 243.377 252.12 253.001 260.821 266.804C269.522 253.001 276.184 243.377 276.184 235.315C276.184 227.252 268.884 220.717 260.821 220.717ZM260.821 241.84C257.639 241.84 255.06 239.261 255.06 236.079C255.06 232.897 257.639 230.318 260.821 230.318C264.003 230.318 266.582 232.897 266.582 236.079C266.582 239.261 264.003 241.84 260.821 241.84Z" fill="#970000"/>
<path d="M315.008 210.006C306.946 210.006 299.645 216.541 299.645 224.604C299.645 232.666 306.307 242.29 315.008 256.094C323.709 242.29 330.37 232.666 330.37 224.604C330.37 216.541 323.071 210.006 315.008 210.006ZM315.008 231.129C311.826 231.129 309.247 228.55 309.247 225.368C309.247 222.186 311.826 219.607 315.008 219.607C318.19 219.607 320.769 222.186 320.769 225.368C320.769 228.55 318.19 231.129 315.008 231.129Z" fill="#970000"/>
<path d="M159.125 333.902C151.063 333.902 143.762 340.437 143.762 348.501C143.762 356.562 150.424 366.187 159.125 379.99C167.826 366.187 174.487 356.562 174.487 348.501C174.487 340.437 167.188 333.902 159.125 333.902ZM159.125 355.026C155.943 355.026 153.364 352.447 153.364 349.265C153.364 346.083 155.943 343.504 159.125 343.504C162.307 343.504 164.886 346.083 164.886 349.265C164.886 352.447 162.307 355.026 159.125 355.026Z" fill="#970000"/>
<path d="M291.546 269.546C283.485 269.546 276.184 276.081 276.184 284.144C276.184 292.206 282.845 301.83 291.546 315.634C300.247 301.83 306.909 292.206 306.909 284.144C306.909 276.081 299.61 269.546 291.546 269.546ZM291.546 290.669C288.364 290.669 285.785 288.09 285.785 284.908C285.785 281.726 288.364 279.148 291.546 279.148C294.728 279.148 297.307 281.726 297.307 284.908C297.307 288.09 294.728 290.669 291.546 290.669Z" fill="#970000"/>
<path d="M175.983 263.028C167.921 263.028 160.62 269.563 160.62 277.626C160.62 285.688 167.282 295.312 175.983 309.116C184.684 295.312 191.345 285.688 191.345 277.626C191.345 269.563 184.046 263.028 175.983 263.028ZM175.983 284.151C172.801 284.151 170.222 281.572 170.222 278.39C170.222 275.208 172.801 272.629 175.983 272.629C179.165 272.629 181.744 275.208 181.744 278.39C181.744 281.572 179.165 284.151 175.983 284.151Z" fill="#970000"/>
<path d="M206.708 346.129C198.646 346.129 191.345 352.664 191.345 360.728C191.345 368.789 198.007 378.414 206.708 392.217C215.409 378.414 222.07 368.789 222.07 360.728C222.07 352.664 214.771 346.129 206.708 346.129ZM206.708 367.253C203.526 367.253 200.947 364.674 200.947 361.492C200.947 358.31 203.526 355.731 206.708 355.731C209.89 355.731 212.469 358.31 212.469 361.492C212.469 364.674 209.89 367.253 206.708 367.253Z" fill="#970000"/>
<path d="M268.158 174.629C260.097 174.629 252.796 181.164 252.796 189.228C252.796 197.289 259.457 206.914 268.158 220.717C276.859 206.914 283.521 197.289 283.521 189.228C283.521 181.164 276.222 174.629 268.158 174.629ZM268.158 195.753C264.976 195.753 262.398 193.174 262.398 189.992C262.398 186.81 264.976 184.231 268.158 184.231C271.34 184.231 273.919 186.81 273.919 189.992C273.919 193.174 271.34 195.753 268.158 195.753Z" fill="#970000"/>
<path d="M152.668 85.0557C144.606 85.0557 137.305 91.5905 137.305 99.6539C137.305 107.715 143.967 117.34 152.668 131.143C161.369 117.34 168.03 107.715 168.03 99.6539C168.03 91.5905 160.731 85.0557 152.668 85.0557ZM152.668 106.179C149.486 106.179 146.907 103.6 146.907 100.418C146.907 97.2363 149.486 94.6573 152.668 94.6573C155.85 94.6573 158.429 97.2363 158.429 100.418C158.429 103.6 155.85 106.179 152.668 106.179Z" fill="#970000"/>
<path d="M161.541 131.144C153.48 131.144 146.179 137.678 146.179 145.742C146.179 153.803 152.84 163.428 161.541 177.231C170.242 163.428 176.904 153.803 176.904 145.742C176.904 137.678 169.605 131.144 161.541 131.144ZM161.541 152.267C158.359 152.267 155.78 149.688 155.78 146.506C155.78 143.324 158.359 140.745 161.541 140.745C164.723 140.745 167.302 143.324 167.302 146.506C167.302 149.688 164.723 152.267 161.541 152.267Z" fill="#970000"/>
</g>
<defs>
<filter id="filter0_d_395_2" x="0.745117" y="0.0683594" width="562.255" height="533.576" filterUnits="userSpaceOnUse" color-interpolation-filters="sRGB">
<feFlood flood-opacity="0" result="BackgroundImageFix"/>
<feColorMatrix in="SourceAlpha" type="matrix" values="0 0 0 0 0 0 0 0 0 0 0 0 0 0 0 0 0 0 127 0" result="hardAlpha"/>
<feOffset dy="4"/>
<feGaussianBlur stdDeviation="2"/>
<feComposite in2="hardAlpha" operator="out"/>
<feColorMatrix type="matrix" values="0 0 0 0 0 0 0 0 0 0 0 0 0 0 0 0 0 0 0.25 0"/>
<feBlend mode="normal" in2="BackgroundImageFix" result="effect1_dropShadow_395_2"/>
<feBlend mode="normal" in="SourceGraphic" in2="effect1_dropShadow_395_2" result="shape"/>
</filter>
</defs>
</svg>
