<svg width="68" height="69" viewBox="0 0 68 69" fill="none" xmlns="http://www.w3.org/2000/svg">
<path d="M39.8112 40.2369L44.5974 31.9594C44.5974 31.9594 44.344 31.7342 43.9499 31.4527L39.8112 28.1867L39.783 28.243C39.8675 27.5673 39.9238 26.9198 39.9238 26.2441C39.9238 25.5684 39.8675 24.9208 39.7549 24.3014L39.783 24.3296L44.5974 20.5568L39.8112 12.2513L34.1521 14.5318V14.5599C33.1104 13.7716 31.9842 13.0959 30.7736 12.5891H30.8017L29.9571 6.53589H20.3564L19.4836 12.5891H19.5117C18.3011 13.0959 17.1749 13.7716 16.1332 14.5599V14.5318L10.4741 12.2513L5.68787 20.5568L10.4741 24.3296L10.5023 24.3014C10.4178 24.9208 10.3615 25.5684 10.3615 26.2441C10.3615 26.9198 10.4178 27.5673 10.5023 28.243L10.4741 28.1867L6.33542 31.4527C5.96941 31.7342 5.68787 31.9594 5.68787 31.9594L10.4741 40.2369L16.1614 37.9845L16.105 37.9C17.1468 38.7165 18.2729 39.3922 19.5117 39.899H19.4836L20.3564 45.9522H29.9289C29.9289 45.9522 29.9852 45.5862 30.0415 45.1076L30.8017 39.899H30.7736C32.0124 39.3922 33.1385 38.7165 34.1803 37.9L34.124 37.9845L39.8112 40.2369ZM25.1427 31.875C22.0457 31.875 19.5117 29.3411 19.5117 26.2441C19.5117 23.1471 22.0457 20.6132 25.1427 20.6132C28.2397 20.6132 30.7736 23.1471 30.7736 26.2441C30.7736 29.3411 28.2397 31.875 25.1427 31.875ZM59.4067 51.4142L59.3786 51.4424C59.4349 51.0201 59.463 50.5977 59.463 50.1754C59.463 49.7531 59.4349 49.3308 59.3504 48.9366L59.3786 48.9648L62.4756 46.5435L59.4067 41.1941L55.7748 42.6582V42.6863C55.0991 42.1795 54.3952 41.7572 53.6069 41.4194H53.635L53.072 37.5059H46.9061L46.343 41.3912H46.3712C45.5828 41.7291 44.879 42.1514 44.2033 42.6582V42.63L40.5713 41.166L37.5025 46.5153L40.5713 48.9366L40.5995 48.9085C40.5432 49.3026 40.515 49.7249 40.515 50.1473C40.515 50.5696 40.5432 50.9919 40.5995 51.4424L40.5713 51.4142L37.9248 53.5258C37.6996 53.6947 37.5025 53.8637 37.5025 53.8637L40.5713 59.1849L44.2314 57.749L44.2033 57.6927C44.879 58.2276 45.611 58.6499 46.3993 58.9878H46.3712L46.9343 62.8731H53.1001C53.1001 62.8731 53.1283 62.6479 53.1846 62.3382L53.6632 58.9878H53.635C54.4234 58.6499 55.1554 58.2276 55.8311 57.6927L55.8029 57.749L59.463 59.1849L62.5319 53.8637C62.5319 53.8637 62.363 53.7229 62.1096 53.5258L59.4067 51.4142ZM49.975 53.8074C47.976 53.8074 46.343 52.1744 46.343 50.1754C46.343 48.1764 47.976 46.5435 49.975 46.5435C51.9739 46.5435 53.6069 48.1764 53.6069 50.1754C53.6069 52.1744 51.9739 53.8074 49.975 53.8074Z" fill="white"/>
</svg>
